<?xml version="1.0" encoding="utf-8"?>
<!--Designed by Vexels.com - 2018 All Rights Reserved - https://vexels.com/terms-and-conditions/-->
<svg version="1.1" id="Layer_1" xmlns="http://www.w3.org/2000/svg" xmlns:xlink="http://www.w3.org/1999/xlink" x="0px" y="0px"
	 viewBox="0 0 1200 1200" enable-background="new 0 0 1200 1200" xml:space="preserve">
<g>
	<path fill-rule="evenodd" clip-rule="evenodd" fill="#348D63" d="M642.233,555.188c-18.566,6.097-39.279-2.226-48.207-20.25
		c-8.982-18.146-2.874-39.821,13.486-50.813c7.88-7.348,25.42-12.074,35.165-11.778c49.585,1.512,73.14,0.941,74.023,2.023
		c1.187,1.446-14.653,19.887-43.343,59.976c-5.751,8.028-20.471,19.295-31.124,20.869V555.188z"/>
	<path fill-rule="evenodd" clip-rule="evenodd" fill="#348D63" d="M650.395,455.022c-11.517-2.293-19.894-12.74-19.221-24.808
		c0.648-12.142,10.243-21.669,22.031-22.59c6.296-1.513,16.861,1.203,21.866,4.222c25.467,15.443,37.951,22.078,38.103,22.912
		c0.188,1.103-13.533,6.078-40.365,18.562c-5.375,2.494-16.394,4.034-22.431,1.721L650.395,455.022z"/>
	<path fill-rule="evenodd" clip-rule="evenodd" fill="#348D63" d="M544.884,637.006c15.144-6.481,23.611-23.282,19.211-39.659
		c-4.43-16.465-20.35-26.771-36.829-24.613c-9.073-0.262-22.801,6.522-28.798,12.135c-30.509,28.573-45.72,41.326-45.683,42.51
		c0.054,1.56,20.334,4.404,60.816,13.776c8.108,1.869,23.689,0.8,31.306-4.121L544.884,637.006z"/>
	<path fill-rule="evenodd" clip-rule="evenodd" fill="#124B54" d="M572.687,733.233c0-19.524,0.699-46.382,1.445-75.278
		c4.898-188.621,12.307-473.905-186.926-489.375l3.257-43.734c240.792,18.697,232.727,328.991,227.403,534.137
		c-0.666,25.46-1.278,49.125-1.278,74.249H572.687z"/>
	<path fill-rule="evenodd" clip-rule="evenodd" fill="#124B54" d="M553.818,740.098c0-12.64,0.699-29.279,1.449-47.196
		c4.753-113.424,11.94-284.982-186.322-294.508l2.047-43.734C612.76,366.291,604.47,563.928,598.997,694.609
		c-0.659,15.779-1.274,30.449-1.274,45.488H553.818z"/>
	<path fill-rule="evenodd" clip-rule="evenodd" fill="#124B54" d="M616.565,724.662c0-8.975-0.615-18.522-1.278-28.795
		c-0.565-8.679-1.15-17.883-1.509-29.231h-0.003c-2.712-86.654,15.02-193.778,229.853-200.507l1.375,43.733
		c-175.01,5.472-189.589,88.374-187.501,155.409v0.081c0.268,8.391,0.911,18.354,1.513,27.78
		c0.757,11.651,1.455,22.482,1.455,31.531H616.565z"/>
	<path fill-rule="evenodd" clip-rule="evenodd" fill="#124B54" d="M592.553,743.533c0-21.594-0.618-42.093-1.278-64.118
		c-5.368-178.785-13.486-449.191,227.568-465.381l2.924,43.727C622.79,271.127,630.139,516.194,635.006,678.219
		c0.76,25.003,1.448,48.251,1.448,65.314H592.553z"/>
	<path fill-rule="evenodd" clip-rule="evenodd" fill="#606E71" d="M352.814,716.089h480.198c10.377,0,20.472,6.864,18.868,15.013
		l-79.731,403.872c-1.607,8.155-8.484,15.026-18.861,15.026h-320.1c-10.367,0-17.234-6.871-18.851-15.026l-80.377-403.872
		C332.332,722.954,342.44,716.089,352.814,716.089z"/>
	<path fill-rule="evenodd" clip-rule="evenodd" fill="#A5B4B5" d="M329.835,685.225h531.307c9.056,0,16.467,7.395,16.467,16.458
		v59.68c0,9.063-7.412,16.458-16.467,16.458H329.835c-9.056,0-16.465-7.395-16.465-16.458v-59.68
		C313.37,692.62,320.778,685.225,329.835,685.225z"/>
	<path fill-rule="evenodd" clip-rule="evenodd" fill="#348D63" d="M374.001,295.982c40.738,9.137,69.62,47.075,66.212,89.907
		c-3.415,43.101-38.345,76.158-80.384,78.383c-22.485,4.814-59.831-5.708-77.378-16.935
		c-89.221-57.099-133.036-81.839-133.479-84.798c-0.598-3.94,48.641-20.398,145.167-62.457c19.335-8.424,58.651-12.955,79.917-4.188
		L374.001,295.982z"/>
	<path fill-rule="evenodd" clip-rule="evenodd" fill="#348D63" d="M421.234,62.095c38.57,15.987,60.518,58.302,49.838,99.924
		c-10.76,41.884-50.829,68.474-92.63,63.459c-22.979,0.907-57.969-15.873-73.331-29.937
		C226.982,124.007,188.053,92.127,188.12,89.142c0.098-3.987,51.418-11.778,153.722-36.674c20.499-4.982,60.003-2.723,79.459,9.56
		L421.234,62.095z"/>
	<path fill-rule="evenodd" clip-rule="evenodd" fill="#348D63" d="M816.403,305.367c-40.009,11.92-83.732-7.073-101.686-46.113
		c-18.068-39.276-3.751-85.194,31.854-107.663c17.268-15.188,55.007-24.236,75.789-23.02c105.749,6.232,156.071,6.427,157.893,8.787
		c2.451,3.16-32.472,41.562-96.159,125.411c-12.764,16.801-44.852,39.955-67.691,42.704V305.367z"/>
	<path fill-rule="evenodd" clip-rule="evenodd" fill="#348D63" d="M824.369,564.64c-40.489-10.172-68.383-48.843-63.892-91.574
		c4.535-42.994,40.287-75.164,82.37-76.313c22.603-4.235,59.67,7.254,76.911,18.925c87.742,59.358,130.91,85.228,131.27,88.186
		c0.497,3.96-49.145,19.154-146.72,58.719c-19.551,7.94-58.965,11.449-80.004,2.151L824.369,564.64z"/>
	<path fill-rule="evenodd" clip-rule="evenodd" fill="#348D63" d="M671.108,338.343c-3.358-15.86,5.372-32.21,21.047-37.931
		c15.782-5.782,33.11,1.21,40.701,15.718c5.344,7.153,7.667,22.051,6.545,30.072c-5.732,40.749-7.382,60.218-8.357,60.864
		c-1.301,0.854-15.073-13.87-45.555-41.165c-6.104-5.479-14.065-18.63-14.421-27.564L671.108,338.343z"/>
	<path fill-rule="evenodd" clip-rule="evenodd" fill="#348D63" d="M687.711,243.771c5.2,18.589-3.93,38.664-22.115,46.664
		c-18.317,8.034-39.427,1.062-49.539-15.59c-6.895-8.095-10.784-25.622-10.051-35.222c3.711-48.849,4.195-72.111,5.301-72.938
		c1.476-1.096,18.962,15.335,57.24,45.447c7.671,6.038,18.122,21.057,19.214,31.638H687.711z"/>
	<path fill-rule="evenodd" clip-rule="evenodd" fill="#348D63" d="M554.269,194.162c-17.302,8.592-38.722,3.382-49.983-12.989
		c-11.332-16.485-8.424-38.53,6.034-51.579c6.669-8.276,23.154-15.376,32.721-16.465c48.685-5.486,71.63-9.365,72.652-8.437
		c1.358,1.237-11.527,21.507-33.938,64.743c-4.491,8.659-17.298,21.735-27.477,24.788L554.269,194.162z"/>
	<path fill-rule="evenodd" clip-rule="evenodd" fill="#348D63" d="M497.15,259.503c13.913-8.605,32.378-5.876,43.152,7.052
		c10.847,13.009,10.115,31.826-1.056,43.962c-4.978,7.496-18.317,14.77-26.31,16.425c-40.62,8.437-59.667,13.493-60.595,12.801
		c-1.247-0.955,8.037-19.04,23.564-57.24c3.106-7.657,12.885-19.671,21.235-23.04L497.15,259.503z"/>
	<path fill-rule="evenodd" clip-rule="evenodd" fill="#348D63" d="M452.479,454.658c22.274-13.755,51.841-9.405,69.089,11.301
		c17.356,20.828,16.185,50.954-1.694,70.377c-7.97,12.007-29.333,23.651-42.12,26.3c-65.028,13.5-95.514,21.601-97.006,20.485
		c-1.994-1.519,12.868-30.476,37.719-91.641c4.975-12.242,20.623-31.504,33.998-36.882L452.479,454.658z"/>
	<path fill-rule="evenodd" clip-rule="evenodd" fill="#348D63" d="M685.462,608.085c-12.949-16.646-12.021-40.701,3.049-56.326
		c15.174-15.698,39.407-17.386,56.514-4.733c10.316,5.325,21.493,21.42,24.727,31.417c16.461,50.92,25.608,74.646,24.844,75.93
		c-1.045,1.728-25.527-7.657-76.666-22.246c-10.252-2.931-27.033-13.776-32.516-24.035L685.462,608.085z"/>
	<path fill-rule="evenodd" clip-rule="evenodd" fill="#348D63" d="M560.408,408.39c8.135-8.457,9.036-21.836,1.603-31.356
		c-7.483-9.573-20.791-11.92-30.997-5.93c-6.02,2.353-13.15,10.609-15.526,15.968c-12.078,27.215-18.522,39.82-18.169,40.566
		c0.471,1.022,14.572-2.743,43.729-7.845c5.839-1.015,15.762-6.044,19.386-11.396L560.408,408.39z"/>
</g>
</svg>
